<svg id="svg" version="1.1" xmlns="http://www.w3.org/2000/svg" xmlns:xlink="http://www.w3.org/1999/xlink" width="400" height="400" viewBox="0, 0, 400,400"><g id="svgg"><path id="path0" d="M287.407 100.124 C 285.599 101.211,283.200 103.981,283.200 104.981 C 283.200 105.541,283.018 106.000,282.796 106.000 C 282.527 106.000,282.396 117.951,282.404 141.800 C 282.412 164.883,282.556 177.600,282.808 177.600 C 283.024 177.600,283.200 177.960,283.200 178.400 C 283.200 178.840,283.380 179.200,283.600 179.200 C 283.820 179.200,284.000 179.476,284.000 179.813 C 284.000 180.759,286.658 183.197,287.790 183.291 C 288.346 183.337,288.800 183.515,288.800 183.687 C 288.800 183.859,305.090 184.000,325.000 184.000 C 352.314 184.000,361.200 183.885,361.200 183.533 C 361.200 183.277,361.313 183.179,361.451 183.317 C 362.116 183.982,366.000 180.994,366.000 179.818 C 366.000 179.478,366.180 179.200,366.400 179.200 C 366.620 179.200,366.800 178.840,366.800 178.400 C 366.800 177.960,366.978 177.600,367.196 177.600 C 367.454 177.600,367.591 165.138,367.591 141.800 C 367.591 118.462,367.454 106.000,367.196 106.000 C 366.978 106.000,366.800 105.541,366.800 104.981 C 366.800 103.942,364.314 101.121,362.499 100.100 C 361.241 99.392,288.587 99.415,287.407 100.124 M289.400 282.800 C 289.264 283.020,288.805 283.200,288.381 283.200 C 287.641 283.200,286.611 283.869,285.240 285.240 C 283.869 286.611,283.200 287.641,283.200 288.381 C 283.200 288.805,283.020 289.264,282.800 289.400 C 282.538 289.562,282.400 301.863,282.400 325.000 C 282.400 348.137,282.538 360.438,282.800 360.600 C 283.020 360.736,283.200 361.287,283.200 361.824 C 283.200 362.361,283.337 362.800,283.505 362.800 C 283.673 362.800,283.988 363.190,284.205 363.667 C 284.422 364.144,284.957 364.729,285.394 364.967 C 285.831 365.205,286.482 365.715,286.841 366.100 C 287.200 366.485,287.867 366.800,288.323 366.800 C 288.780 366.800,289.264 366.980,289.400 367.200 C 289.562 367.462,301.863 367.600,325.000 367.600 C 348.137 367.600,360.438 367.462,360.600 367.200 C 360.736 366.980,361.287 366.800,361.824 366.800 C 362.361 366.800,362.800 366.663,362.800 366.495 C 362.800 366.327,363.190 366.012,363.667 365.795 C 364.144 365.578,364.729 365.043,364.967 364.606 C 365.205 364.169,365.715 363.518,366.100 363.159 C 366.485 362.800,366.800 362.133,366.800 361.677 C 366.800 361.220,366.980 360.736,367.200 360.600 C 367.462 360.438,367.600 348.137,367.600 325.000 C 367.600 301.863,367.462 289.562,367.200 289.400 C 366.980 289.264,366.800 288.753,366.800 288.265 C 366.800 287.776,366.440 287.117,366.000 286.800 C 365.560 286.483,365.200 285.987,365.200 285.699 C 365.200 285.411,364.885 285.058,364.500 284.915 C 364.115 284.772,363.509 284.328,363.153 283.928 C 362.797 283.527,362.133 283.200,361.677 283.200 C 361.220 283.200,360.736 283.020,360.600 282.800 C 360.438 282.538,348.137 282.400,325.000 282.400 C 301.863 282.400,289.562 282.538,289.400 282.800 M97.200 308.000 C 97.200 308.220,96.913 308.400,96.562 308.400 C 95.350 308.400,93.349 310.234,80.066 323.523 L 66.732 336.862 64.411 334.731 C 63.135 333.559,62.070 332.345,62.045 332.033 C 62.020 331.722,61.896 331.571,61.768 331.699 C 61.640 331.827,60.875 331.182,60.068 330.266 C 56.622 326.358,54.453 324.800,52.460 324.800 C 51.573 324.800,50.736 324.620,50.600 324.400 C 50.464 324.180,50.083 324.000,49.753 324.000 C 49.423 324.000,49.264 324.180,49.400 324.400 C 49.551 324.645,48.930 324.800,47.800 324.800 C 45.552 324.800,43.148 326.518,41.962 328.972 C 41.128 330.700,40.845 336.800,41.600 336.800 C 41.820 336.800,42.000 337.156,42.000 337.590 C 42.000 338.487,59.907 356.648,61.700 357.570 C 62.305 357.881,62.800 358.285,62.800 358.468 C 62.800 359.110,69.253 358.835,70.866 358.123 C 71.710 357.751,72.400 357.301,72.400 357.123 C 72.400 356.945,72.593 356.800,72.829 356.800 C 73.299 356.800,73.664 356.456,75.303 354.469 C 75.906 353.737,76.400 353.242,76.400 353.367 C 76.400 353.493,83.240 346.746,91.600 338.374 C 99.960 330.002,106.800 322.982,106.800 322.776 C 106.800 322.569,106.945 322.400,107.123 322.400 C 107.301 322.400,107.751 321.710,108.123 320.866 C 108.843 319.235,109.100 313.200,108.450 313.200 C 108.258 313.200,107.992 312.705,107.859 312.100 C 107.600 310.919,104.606 308.400,103.461 308.400 C 103.097 308.400,102.800 308.220,102.800 308.000 C 102.800 307.771,101.600 307.600,100.000 307.600 C 98.400 307.600,97.200 307.771,97.200 308.000 " stroke="none" fill="#bcbcbc" fill-rule="evenodd"></path><path id="path1" d="M166.000 141.800 L 166.000 184.000 191.628 184.000 L 217.255 184.000 221.224 179.900 C 225.998 174.967,224.967 175.998,229.900 171.224 L 234.000 167.255 234.000 133.428 L 234.000 99.600 200.000 99.600 L 166.000 99.600 166.000 141.800 M166.000 241.800 L 166.000 284.000 191.628 284.000 L 217.255 284.000 221.224 279.900 C 225.998 274.967,224.967 275.998,229.900 271.224 L 234.000 267.255 234.000 233.428 L 234.000 199.600 200.000 199.600 L 166.000 199.600 166.000 241.800 " stroke="none" fill="#fc645c" fill-rule="evenodd"></path><path id="path2" d="M3.440 0.609 C 1.846 1.442,0.442 3.163,0.187 4.600 C 0.069 5.260,0.024 93.736,0.087 201.213 L 0.200 396.627 1.787 398.213 L 3.373 399.800 200.000 399.800 L 396.627 399.800 398.213 398.213 L 399.800 396.627 399.800 200.000 L 399.800 3.373 398.213 1.787 L 396.627 0.200 200.613 0.102 C 26.213 0.014,4.472 0.070,3.440 0.609 M382.400 41.800 L 382.400 66.000 200.000 66.000 L 17.600 66.000 17.600 41.800 L 17.600 17.600 200.000 17.600 L 382.400 17.600 382.400 41.800 M39.600 32.713 C 39.600 32.885,39.105 33.066,38.500 33.116 C 37.895 33.166,37.340 33.385,37.267 33.603 C 37.193 33.822,36.854 34.000,36.513 34.000 C 35.825 34.000,34.001 35.935,34.000 36.667 C 34.000 36.923,33.822 37.193,33.603 37.267 C 33.385 37.340,33.166 37.895,33.116 38.500 C 33.066 39.105,32.885 39.600,32.713 39.600 C 32.251 39.600,32.332 43.511,32.800 43.800 C 33.020 43.936,33.200 44.491,33.200 45.034 C 33.200 46.027,35.715 48.859,37.522 49.900 C 38.198 50.290,46.441 50.400,75.000 50.400 C 103.559 50.400,111.802 50.290,112.478 49.900 C 114.095 48.968,116.599 46.205,116.738 45.200 C 116.814 44.650,117.039 44.140,117.238 44.067 C 117.733 43.884,117.699 39.708,117.200 39.400 C 116.980 39.264,116.800 38.713,116.800 38.176 C 116.800 37.639,116.620 37.200,116.400 37.200 C 116.180 37.200,116.000 36.922,116.000 36.582 C 116.000 35.782,114.218 34.000,113.418 34.000 C 113.078 34.000,112.800 33.820,112.800 33.600 C 112.800 33.380,112.361 33.200,111.824 33.200 C 111.287 33.200,110.736 33.020,110.600 32.800 C 110.303 32.319,39.600 32.232,39.600 32.713 M164.400 32.800 C 164.070 33.013,163.395 33.191,162.900 33.194 C 162.405 33.197,162.000 33.380,162.000 33.600 C 162.000 33.820,161.794 34.000,161.543 34.000 C 160.863 34.000,158.731 36.365,159.008 36.813 C 159.140 37.026,159.057 37.200,158.824 37.200 C 158.591 37.200,158.400 37.549,158.400 37.976 C 158.400 38.403,158.220 38.864,158.000 39.000 C 157.780 39.136,157.600 40.317,157.600 41.624 C 157.600 42.941,157.778 44.000,158.000 44.000 C 158.220 44.000,158.400 44.526,158.400 45.168 C 158.400 46.422,161.119 49.600,162.192 49.600 C 162.500 49.600,162.864 49.780,163.000 50.000 C 163.162 50.262,175.930 50.400,200.000 50.400 C 224.070 50.400,236.838 50.262,237.000 50.000 C 237.136 49.780,237.500 49.600,237.808 49.600 C 238.881 49.600,241.600 46.422,241.600 45.168 C 241.600 44.526,241.780 44.000,242.000 44.000 C 242.220 44.000,242.400 43.021,242.400 41.824 C 242.400 40.627,242.220 39.536,242.000 39.400 C 241.780 39.264,241.600 38.713,241.600 38.176 C 241.600 37.639,241.409 37.200,241.176 37.200 C 240.943 37.200,240.860 37.026,240.992 36.813 C 241.269 36.365,239.137 34.000,238.457 34.000 C 238.206 34.000,238.000 33.820,238.000 33.600 C 238.000 33.380,237.460 33.200,236.800 33.200 C 236.140 33.200,235.600 33.020,235.600 32.800 C 235.600 32.260,165.236 32.260,164.400 32.800 M289.600 32.713 C 289.600 32.885,289.105 33.066,288.500 33.116 C 287.895 33.166,287.340 33.385,287.267 33.603 C 287.193 33.822,286.854 34.000,286.513 34.000 C 285.825 34.000,284.001 35.935,284.000 36.667 C 284.000 36.923,283.822 37.193,283.603 37.267 C 283.385 37.340,283.166 37.895,283.116 38.500 C 283.066 39.105,282.885 39.600,282.713 39.600 C 282.251 39.600,282.332 43.511,282.800 43.800 C 283.020 43.936,283.200 44.491,283.200 45.034 C 283.200 46.027,285.715 48.859,287.522 49.900 C 288.198 50.290,296.441 50.400,325.000 50.400 C 353.559 50.400,361.802 50.290,362.478 49.900 C 364.095 48.968,366.599 46.205,366.738 45.200 C 366.814 44.650,367.039 44.140,367.238 44.067 C 367.733 43.884,367.699 39.708,367.200 39.400 C 366.980 39.264,366.800 38.713,366.800 38.176 C 366.800 37.639,366.620 37.200,366.400 37.200 C 366.180 37.200,366.000 36.922,366.000 36.582 C 366.000 35.782,364.218 34.000,363.418 34.000 C 363.078 34.000,362.800 33.820,362.800 33.600 C 362.800 33.380,362.361 33.200,361.824 33.200 C 361.287 33.200,360.736 33.020,360.600 32.800 C 360.303 32.319,289.600 32.232,289.600 32.713 M132.400 233.200 L 132.400 382.400 75.000 382.400 L 17.600 382.400 17.600 233.200 L 17.600 84.000 75.000 84.000 L 132.400 84.000 132.400 233.200 M249.600 233.200 L 249.600 382.400 200.000 382.400 L 150.400 382.400 150.400 233.200 L 150.400 84.000 200.000 84.000 L 249.600 84.000 249.600 233.200 M382.400 233.200 L 382.400 382.400 325.000 382.400 L 267.600 382.400 267.600 233.200 L 267.600 84.000 325.000 84.000 L 382.400 84.000 382.400 233.200 M37.428 100.124 C 35.818 101.118,33.395 103.840,33.265 104.800 C 33.191 105.350,32.966 105.971,32.765 106.180 C 32.246 106.720,32.280 175.479,32.800 175.800 C 33.020 175.936,33.200 176.757,33.200 177.624 C 33.200 178.491,33.380 179.200,33.600 179.200 C 33.820 179.200,34.000 179.476,34.000 179.813 C 34.000 180.597,36.585 183.200,37.363 183.200 C 37.687 183.200,38.064 183.380,38.200 183.600 C 38.497 184.081,111.200 184.168,111.200 183.687 C 111.200 183.515,111.654 183.337,112.210 183.291 C 113.342 183.197,116.000 180.759,116.000 179.813 C 116.000 179.476,116.180 179.200,116.400 179.200 C 116.620 179.200,116.800 178.840,116.800 178.400 C 116.800 177.960,116.982 177.600,117.204 177.600 C 117.473 177.600,117.604 165.906,117.596 142.582 C 117.587 119.846,117.446 107.648,117.192 107.805 C 116.956 107.951,116.800 107.238,116.800 106.013 C 116.800 103.882,114.201 100.400,112.611 100.400 C 112.275 100.400,112.000 100.220,112.000 100.000 C 112.000 99.380,38.435 99.502,37.428 100.124 M85.600 117.788 C 85.600 118.039,50.847 152.800,50.596 152.800 C 50.488 152.800,50.400 144.880,50.400 135.200 L 50.400 117.600 68.000 117.600 C 77.680 117.600,85.600 117.685,85.600 117.788 M99.600 148.400 L 99.600 166.000 82.000 166.000 C 72.320 166.000,64.400 165.902,64.400 165.783 C 64.400 165.663,65.829 164.152,67.575 162.425 C 69.321 160.697,70.641 159.175,70.508 159.042 C 70.375 158.909,70.577 158.800,70.957 158.800 C 71.337 158.800,71.536 158.620,71.400 158.400 C 71.264 158.180,71.349 158.000,71.590 158.000 C 72.138 158.000,74.400 155.716,74.400 155.163 C 74.400 154.937,74.580 154.864,74.800 155.000 C 75.020 155.136,75.200 154.937,75.200 154.557 C 75.200 154.177,75.306 153.972,75.435 154.102 C 75.739 154.406,87.927 142.296,87.714 141.900 C 87.625 141.735,87.844 141.600,88.200 141.600 C 88.556 141.600,88.736 141.420,88.600 141.200 C 88.464 140.980,88.543 140.800,88.776 140.800 C 89.009 140.800,89.560 140.440,90.000 140.000 C 90.440 139.560,90.800 139.009,90.800 138.776 C 90.800 138.543,90.980 138.464,91.200 138.600 C 91.420 138.736,91.600 138.556,91.600 138.200 C 91.600 137.844,91.735 137.628,91.900 137.720 C 92.065 137.812,93.730 136.305,95.600 134.371 C 97.470 132.437,99.135 130.842,99.300 130.827 C 99.465 130.812,99.600 138.720,99.600 148.400 M37.428 200.124 C 35.818 201.118,33.395 203.840,33.265 204.800 C 33.191 205.350,32.966 205.971,32.765 206.180 C 32.244 206.722,32.279 277.722,32.800 277.400 C 33.027 277.260,33.200 277.596,33.200 278.176 C 33.200 278.739,33.380 279.200,33.600 279.200 C 33.820 279.200,34.000 279.491,34.000 279.846 C 34.000 280.681,36.745 283.200,37.655 283.200 C 38.039 283.200,38.464 283.380,38.600 283.600 C 38.897 284.081,111.200 284.168,111.200 283.687 C 111.200 283.515,111.654 283.337,112.210 283.291 C 113.342 283.197,116.000 280.759,116.000 279.813 C 116.000 279.476,116.180 279.200,116.400 279.200 C 116.620 279.200,116.800 278.840,116.800 278.400 C 116.800 277.960,116.980 277.600,117.200 277.600 C 117.718 277.600,117.756 206.124,117.238 205.933 C 117.039 205.860,116.814 205.350,116.738 204.800 C 116.580 203.655,113.527 200.400,112.611 200.400 C 112.275 200.400,112.000 200.220,112.000 200.000 C 112.000 199.380,38.435 199.502,37.428 200.124 M85.600 217.788 C 85.600 218.039,50.847 252.800,50.596 252.800 C 50.488 252.800,50.400 244.880,50.400 235.200 L 50.400 217.600 68.000 217.600 C 77.680 217.600,85.600 217.685,85.600 217.788 M99.600 248.400 L 99.600 266.000 82.000 266.000 C 72.320 266.000,64.400 265.902,64.400 265.783 C 64.400 265.663,65.829 264.152,67.575 262.425 C 69.321 260.697,70.641 259.175,70.508 259.042 C 70.375 258.909,70.577 258.800,70.957 258.800 C 71.337 258.800,71.536 258.620,71.400 258.400 C 71.264 258.180,71.349 258.000,71.590 258.000 C 72.138 258.000,74.400 255.716,74.400 255.163 C 74.400 254.937,74.580 254.864,74.800 255.000 C 75.020 255.136,75.200 254.937,75.200 254.557 C 75.200 254.177,75.306 253.972,75.435 254.102 C 75.739 254.406,87.927 242.296,87.714 241.900 C 87.625 241.735,87.844 241.600,88.200 241.600 C 88.556 241.600,88.736 241.420,88.600 241.200 C 88.464 240.980,88.543 240.800,88.776 240.800 C 89.009 240.800,89.560 240.440,90.000 240.000 C 90.440 239.560,90.800 239.009,90.800 238.776 C 90.800 238.543,90.980 238.464,91.200 238.600 C 91.420 238.736,91.600 238.556,91.600 238.200 C 91.600 237.844,91.735 237.628,91.900 237.720 C 92.065 237.812,93.730 236.305,95.600 234.371 C 97.470 232.437,99.135 230.842,99.300 230.827 C 99.465 230.812,99.600 238.720,99.600 248.400 " stroke="none" fill="#444444" fill-rule="evenodd"></path><path id="path3" d="" stroke="none" fill="#708884" fill-rule="evenodd"></path><path id="path4" d="" stroke="none" fill="#704488" fill-rule="evenodd"></path></g></svg>